<svg width="17" height="14" viewBox="0 0 17 14" fill="none" xmlns="http://www.w3.org/2000/svg">
<path fill-rule="evenodd" clip-rule="evenodd" d="M11.6667 1.66667C12.2836 1.66667 12.8222 1.3315 13.1103 0.833333H15C15.4602 0.833333 15.8333 1.20643 15.8333 1.66667V3.43835C14.3957 3.80838 13.3333 5.1135 13.3333 6.66667C13.3333 8.21983 14.3957 9.52492 15.8333 9.895V11.6667C15.8333 12.1269 15.4602 12.5 15 12.5H13.1103C12.8222 12.0018 12.2836 11.6667 11.6667 11.6667C11.0497 11.6667 10.5112 12.0018 10.223 12.5H1.66667C1.20643 12.5 0.833333 12.1269 0.833333 11.6667V9.895C2.27102 9.52492 3.33333 8.21983 3.33333 6.66667C3.33333 5.1135 2.27102 3.80838 0.833333 3.43835V1.66667C0.833333 1.20643 1.20643 0.833333 1.66667 0.833333H10.223C10.5112 1.3315 11.0497 1.66667 11.6667 1.66667ZM14.1667 6.66667C14.1667 5.28592 15.2859 4.16667 16.6667 4.16667V1.66667C16.6667 0.746192 15.9205 0 15 0H12.5C12.5 0.460233 12.1269 0.833333 11.6667 0.833333C11.2064 0.833333 10.8333 0.460233 10.8333 0H1.66667C0.746192 0 0 0.746192 0 1.66667V4.16667C1.38071 4.16667 2.5 5.28592 2.5 6.66667C2.5 8.04742 1.38071 9.16667 0 9.16667V11.6667C0 12.5872 0.746192 13.3333 1.66667 13.3333H10.8333C10.8333 12.8731 11.2064 12.5 11.6667 12.5C12.1269 12.5 12.5 12.8731 12.5 13.3333H15C15.9205 13.3333 16.6667 12.5872 16.6667 11.6667V9.16667C15.2859 9.16667 14.1667 8.04742 14.1667 6.66667ZM11.6667 4.16667C12.1269 4.16667 12.5 3.79357 12.5 3.33333C12.5 2.8731 12.1269 2.5 11.6667 2.5C11.2064 2.5 10.8333 2.8731 10.8333 3.33333C10.8333 3.79357 11.2064 4.16667 11.6667 4.16667ZM11.6667 7.5C12.1269 7.5 12.5 7.12692 12.5 6.66667C12.5 6.20642 12.1269 5.83333 11.6667 5.83333C11.2064 5.83333 10.8333 6.20642 10.8333 6.66667C10.8333 7.12692 11.2064 7.5 11.6667 7.5ZM12.5 10C12.5 10.4602 12.1269 10.8333 11.6667 10.8333C11.2064 10.8333 10.8333 10.4602 10.8333 10C10.8333 9.53975 11.2064 9.16667 11.6667 9.16667C12.1269 9.16667 12.5 9.53975 12.5 10Z" fill="#707070"/>
</svg>
